<?xml version="1.0" encoding="iso-8859-1"?>
<!-- Uploaded to: SVG Repo, www.svgrepo.com, Generator: SVG Repo Mixer Tools -->
<svg version="1.1" id="Layer_1" xmlns="http://www.w3.org/2000/svg" xmlns:xlink="http://www.w3.org/1999/xlink" 
	 viewBox="0 0 512 512" xml:space="preserve">
<rect y="36.55" style="fill:#FF633E;" width="512" height="390.1"/>
<rect x="256" y="36.55" style="fill:#FF3100;" width="256" height="396.62"/>
<rect x="253.32" y="318.31" style="fill:#ED2400;" width="102.02" height="107.95"/>
<g>
	<rect x="151.3" y="318.31" style="fill:#FF3100;" width="102.02" height="107.95"/>
	<rect x="45.638" y="90.85" style="fill:#FF3100;" width="420.73" height="243.25"/>
</g>
<rect x="257.31" y="90.85" style="fill:#ED2400;" width="209.05" height="243.25"/>
<rect x="62.897" y="109.27" style="fill:#FFFFFF;" width="386.21" height="206.4"/>
<rect x="149.32" y="262.81" style="fill:#E0E0E3;" width="213.31" height="52.867"/>
<rect x="81.21" y="125.38" style="fill:#FFDF46;" width="349.57" height="174.18"/>
<rect x="257.53" y="125.38" style="fill:#FFDA2D;" width="173.25" height="174.18"/>
<rect x="149.32" y="246.7" style="fill:#FFCE00;" width="213.31" height="52.867"/>
<g>
	<path style="fill:#FFFFFF;" d="M328.558,475.45c-4.767,0-8.629-3.864-8.629-8.629V335.576H192.064v131.245
		c0,4.766-3.862,8.629-8.629,8.629s-8.629-3.864-8.629-8.629V326.947c0-4.766,3.862-8.629,8.629-8.629h145.123
		c4.767,0,8.629,3.864,8.629,8.629v139.874C337.187,471.587,333.323,475.45,328.558,475.45z"/>
	<path style="fill:#FFFFFF;" d="M230.36,475.45c-4.767,0-8.629-3.864-8.629-8.629V326.947c0-4.766,3.862-8.629,8.629-8.629
		s8.629,3.864,8.629,8.629v139.874C238.989,471.587,235.127,475.45,230.36,475.45z"/>
	<path style="fill:#FFFFFF;" d="M280.285,475.45c-4.767,0-8.629-3.864-8.629-8.629V326.947c0-4.766,3.862-8.629,8.629-8.629
		s8.629,3.864,8.629,8.629v139.874C288.914,471.587,285.051,475.45,280.285,475.45z"/>
	<path style="fill:#FFFFFF;" d="M328.558,388.926H183.435c-4.767,0-8.629-3.864-8.629-8.629s3.862-8.629,8.629-8.629h145.123
		c4.767,0,8.629,3.864,8.629,8.629S333.323,388.926,328.558,388.926z"/>
	<path style="fill:#FFFFFF;" d="M328.558,441.804H183.435c-4.767,0-8.629-3.864-8.629-8.629s3.862-8.629,8.629-8.629h145.123
		c4.767,0,8.629,3.864,8.629,8.629S333.323,441.804,328.558,441.804z"/>
</g>
<rect x="165.53" y="263.56" style="fill:#FFDF46;" width="180.93" height="72.01"/>
<rect x="256" y="263.56" style="fill:#FFDA2D;" width="90.47" height="72.01"/>
<g>
	<path style="fill:#FFEB96;" d="M211.128,162.229H118.25c-4.767,0-8.629-3.864-8.629-8.629s3.862-8.629,8.629-8.629h92.878
		c4.767,0,8.629,3.864,8.629,8.629S215.895,162.229,211.128,162.229z"/>
	<path style="fill:#FFEB96;" d="M221.731,297.87H190.01c-4.767,0-8.629-3.864-8.629-8.629s3.862-8.629,8.629-8.629h31.721
		c4.767,0,8.629,3.864,8.629,8.629S226.496,297.87,221.731,297.87z"/>
</g>
</svg>